<svg xmlns="http://www.w3.org/2000/svg" version="1.1" xmlns:xlink="http://www.w3.org/1999/xlink" xmlns:svgjs="http://svgjs.dev/svgjs" width="2000" height="1252" viewBox="0 0 2000 1252"><g transform="matrix(1,0,0,1,-1.2121212121212466,-2.01935483870966)"><svg viewBox="0 0 396 248" data-background-color="#000000" preserveAspectRatio="xMidYMid meet" height="1252" width="2000" xmlns="http://www.w3.org/2000/svg" xmlns:xlink="http://www.w3.org/1999/xlink"><g id="tight-bounds" transform="matrix(1,0,0,1,0.2400000000000091,0.4000000000000057)"><svg viewBox="0 0 395.52 247.2" height="247.2" width="395.52"><g><svg></svg></g><g><svg viewBox="0 0 395.52 247.2" height="247.2" width="395.52"><mask id="5b52a5b1-b7f4-497a-ae9a-e8f160728c6a"><rect width="640" height="400" fill="white"></rect><g transform="matrix(1,0,0,1,154.5,80.34)"><svg viewBox="0 0 86.52 86.52" height="86.52" width="86.52"><g><svg viewBox="0 0 86.52 86.52" height="86.52" width="86.52"><g><svg viewBox="0 0 86.52 86.52" height="86.52" width="86.52"><g><svg viewBox="0 0 86.52 86.52" height="86.52" width="86.52"><g id="SvgjsG1746"><svg viewBox="0 0 86.52 86.52" height="86.52" width="86.52" id="SvgjsSvg1745"><g><svg viewBox="0 0 86.52 86.52" height="86.52" width="86.52"><g transform="matrix(1,0,0,1,0,0)"><svg width="86.52" viewBox="-4 -4 8 8" height="86.52" data-palette-color="#ff004d"><path d="M0 0" opacity="1" transform="matrix(1,0,0,1,0,0)" fill="black" class="wordmark-text-0" id="SvgjsPath1744" stroke-width="7" stroke="black" stroke-linejoin="round"></path></svg></g></svg></g></svg></g></svg></g><g></g></svg></g></svg></g></svg></g></mask><g transform="matrix(1,0,0,1,154.5,80.34)"><svg viewBox="0 0 86.52 86.52" height="86.52" width="86.52"><g><svg viewBox="0 0 86.52 86.52" height="86.52" width="86.52"><g><svg viewBox="0 0 86.52 86.52" height="86.52" width="86.52"><g><svg viewBox="0 0 86.52 86.52" height="86.52" width="86.52"><g id="textblocktransform"><svg viewBox="0 0 86.52 86.52" height="86.52" width="86.52" id="textblock"><g><svg viewBox="0 0 86.52 86.52" height="86.52" width="86.52"><g transform="matrix(1,0,0,1,0,0)"><svg width="86.52" viewBox="-4 -4 8 8" height="86.52" data-palette-color="#ff004d"><path d="M0 0" opacity="1" transform="matrix(1,0,0,1,0,0)" fill="#ff004d" class="wordmark-text-0" data-fill-palette-color="primary" id="text-0"></path></svg></g></svg></g></svg></g></svg></g><g></g></svg></g></svg></g></svg></g><g mask="url(#5b52a5b1-b7f4-497a-ae9a-e8f160728c6a)"><g transform="matrix(0.4060274879947011, 0, 0, 0.4060274879947011, 44.84492467652373, 1)"><svg xmlns="http://www.w3.org/2000/svg" xmlns:xlink="http://www.w3.org/1999/xlink" version="1.1" x="0" y="0" viewBox="48.687381778763 123.2 753.2252364424739 603.9" enable-background="new 0 0 850.4 850.4" xml:space="preserve" height="603.9" width="753.2252364424739" class="icon-none" data-fill-palette-color="accent" id="none"></svg></g></g></svg></g><defs></defs><mask id="543aa6ef-e7ea-4268-a2df-26fd716414ab"><g id="SvgjsG1766"><svg viewBox="0 0 395.52 247.2" height="247.2" width="395.52"><g><svg></svg></g><g><svg viewBox="0 0 395.52 247.2" height="247.2" width="395.52"><mask id="SvgjsMask1765"><rect width="640" height="400" fill="black"></rect><g transform="matrix(1,0,0,1,154.5,80.34)"><svg viewBox="0 0 86.52 86.52" height="86.52" width="86.52"><g><svg viewBox="0 0 86.52 86.52" height="86.52" width="86.52"><g><svg viewBox="0 0 86.52 86.52" height="86.52" width="86.52"><g><svg viewBox="0 0 86.52 86.52" height="86.52" width="86.52"><g id="SvgjsG1764"><svg viewBox="0 0 86.52 86.52" height="86.52" width="86.52" id="SvgjsSvg1763"><g><svg viewBox="0 0 86.52 86.52" height="86.52" width="86.52"><g transform="matrix(1,0,0,1,0,0)"><svg width="86.52" viewBox="-4 -4 8 8" height="86.52" data-palette-color="#ff004d"><path d="M0 0" opacity="1" transform="matrix(1,0,0,1,0,0)" fill="black" class="wordmark-text-0" id="SvgjsPath1762" stroke-width="7" stroke="black" stroke-linejoin="round"></path></svg></g></svg></g></svg></g></svg></g><g></g></svg></g></svg></g></svg></g></mask><g transform="matrix(1,0,0,1,154.5,80.34)"><svg viewBox="0 0 86.52 86.52" height="86.52" width="86.52"><g><svg viewBox="0 0 86.52 86.52" height="86.52" width="86.52"><g><svg viewBox="0 0 86.52 86.52" height="86.52" width="86.52"><g><svg viewBox="0 0 86.52 86.52" height="86.52" width="86.52"><g id="SvgjsG1761"><svg viewBox="0 0 86.52 86.52" height="86.52" width="86.52" id="SvgjsSvg1760"><g><svg viewBox="0 0 86.52 86.52" height="86.52" width="86.52"><g transform="matrix(1,0,0,1,0,0)"><svg width="86.52" viewBox="-4 -4 8 8" height="86.52" data-palette-color="#ff004d"><path d="M0 0" opacity="1" transform="matrix(1,0,0,1,0,0)" fill="black" class="wordmark-text-0" id="SvgjsPath1759"></path></svg></g></svg></g></svg></g></svg></g><g></g></svg></g></svg></g></svg></g><g mask="url(#5b52a5b1-b7f4-497a-ae9a-e8f160728c6a)"><g transform="matrix(0.4060274879947011, 0, 0, 0.4060274879947011, 44.84492467652373, 1)"><svg xmlns="http://www.w3.org/2000/svg" xmlns:xlink="http://www.w3.org/1999/xlink" version="1.1" x="0" y="0" viewBox="48.687381778763 123.2 753.2252364424739 603.9" enable-background="new 0 0 850.4 850.4" xml:space="preserve" height="603.9" width="753.2252364424739" class="icon-none" data-fill-palette-color="accent" id="SvgjsSvg1758"><path d="M800.1 682C737.2 639.3 680.1 546.2 647.4 433.1 621.1 342.3 618.6 228.1 640.9 127.8 641.1 126.7 640.9 125.5 640.2 124.6S638.4 123.2 637.3 123.2H573.6C572 123.2 570.5 124.3 570 125.8L515.2 305.4 460.3 125.8C459.8 124.2 458.4 123.2 456.7 123.2H393.8C392.2 123.2 390.7 124.3 390.2 125.9L335.4 305.7 280.6 125.9C280.1 124.3 278.7 123.3 277 123.3H213.3C212.2 123.3 211.1 123.8 210.4 124.7S209.4 126.7 209.7 127.9C232 228.3 229.5 342.4 203.2 433.2 170.3 546.3 113.2 639.3 50.3 682 49.3 682.7 48.7 683.7 48.7 684.9 48.6 686.1 49.1 687.2 50 688L96.1 726.2C96.8 726.8 97.6 727.1 98.5 727.1 99.2 727.1 99.9 726.9 100.5 726.5 208.8 655.8 279.6 482 288.2 377L300.9 418.4 208.3 722.2C208 723.3 208.2 724.6 208.9 725.5 209.6 726.5 210.7 727 211.9 727H280.7C282.3 727 283.8 725.9 284.3 724.4L339.3 543.9 394.4 724.4C394.9 726 396.3 727 398 727H452.8C454.4 727 455.9 725.9 456.4 724.4L511.4 544 566.4 724.4C566.9 726 568.3 727 570 727H638.9C641 727 642.6 725.3 642.6 723.3 642.6 722.7 642.4 722.1 642.2 721.5L549.8 418.4 562.4 376.9C571 481.9 641.9 655.6 750.2 726.4 751.6 727.3 753.4 727.2 754.6 726.1L800.6 687.9C801.5 687.1 802 686 801.9 684.8 801.7 683.8 801.1 682.7 800.1 682M425.2 262L476.8 431 472.7 444.3C461.8 429.6 451.5 409.3 443.8 381.5 443.4 379.9 441.9 378.7 440.2 378.7H410C408.3 378.7 406.8 379.8 406.4 381.5 403.2 393.3 394.4 420.6 377.5 444.2L373.5 431.2zM284.8 351.1C283 351.4 281.6 353 281.6 354.8 282.4 453.3 211.6 643 98.7 718.6L58.5 685.3C121.1 640.5 177.6 547.5 210.2 435.2 236.5 344.6 239.3 231.1 217.8 130.7H274.1L372 451.6C360.7 465.3 346.2 476.9 328.1 482L315.2 439.9 288.9 353.8C288.4 352 286.6 350.9 284.8 351.1M449.9 719.6H400.6L343.8 533.6C361.9 527.2 377 519.4 389.7 509.7L421.6 614.2C422.1 615.8 423.5 616.8 425.2 616.8 426.8 616.8 428.3 615.7 428.8 614.2L460.7 509.7C473.5 519.4 488.6 527.2 506.7 533.6zM396 504.6C407.8 494.4 417.4 482.3 425.2 467.8 433 482.2 442.5 494.3 454.4 504.6L425.2 600.2zM751.8 718.7C638.8 643 568 453.3 568.8 354.9 568.8 353 567.5 351.5 565.6 351.2 563.8 350.9 562 352 561.5 353.8L542.1 417.5 540.9 421.4 522.4 482C512.9 479.2 495.5 471.6 478.4 451.6L484.2 432.6C484.2 432.5 484.3 432.4 484.3 432.4L518.7 319.7V319.5L576.2 131H632.5C611 231.4 613.8 344.9 640.1 435.5 672.6 547.8 729.1 640.8 791.8 685.6z" fill="white"></path></svg></g></g></svg></g><defs><mask></mask></defs></svg><rect width="395.52" height="247.2" fill="black" stroke="none" visibility="hidden"></rect></g></mask><linearGradient x1="0" x2="1" y1="0.5" y2="0.5" id="d70a6825-3af9-4d06-9e39-d165941cbcd7"><stop stop-color="#f00b51" offset="0"></stop><stop stop-color="#730062" offset="1"></stop></linearGradient><rect width="395.52" height="247.2" fill="url(#d70a6825-3af9-4d06-9e39-d165941cbcd7)" mask="url(#543aa6ef-e7ea-4268-a2df-26fd716414ab)" data-fill-palette-color="accent"></rect></svg><rect width="395.52" height="247.2" fill="none" stroke="none" visibility="hidden"></rect></g></svg></g></svg>